<svg xmlns="http://www.w3.org/2000/svg" xmlns:xlink="http://www.w3.org/1999/xlink" viewBox="0 0 841.656 790.654">
  <defs>
    <style>
      .cls-1 {
        fill: #f7f8fc;
      }

      .cls-2 {
        fill: #fafbfd;
      }

      .cls-3 {
        clip-path: url(#clip-path);
      }

      .cls-12, .cls-4 {
        fill: #6c63ff;
      }

      .cls-4, .cls-9 {
        opacity: 0.1;
      }

      .cls-5 {
        fill: #ffdf9c;
      }

      .cls-6 {
        fill: url(#linear-gradient);
      }

      .cls-7 {
        fill: #ffcdd3;
      }

      .cls-8 {
        opacity: 0.05;
      }

      .cls-10 {
        fill: #dce6f2;
      }

      .cls-11 {
        fill: #ff8aa1;
      }

      .cls-13, .cls-20 {
        fill: #fff;
      }

      .cls-13, .cls-21 {
        opacity: 0.2;
      }

      .cls-14, .cls-15, .cls-18, .cls-19 {
        fill: none;
        stroke-miterlimit: 10;
      }

      .cls-14, .cls-15 {
        stroke: #535461;
      }

      .cls-15, .cls-18, .cls-19 {
        stroke-width: 2px;
      }

      .cls-16 {
        fill: #fc6681;
      }

      .cls-17 {
        fill: #ffd037;
      }

      .cls-18 {
        stroke: #fc6681;
      }

      .cls-19 {
        stroke: #ffd037;
      }

      .cls-20 {
        opacity: 0.4;
      }

      .cls-21 {
        fill: #f5f5f5;
      }
    </style>
    <clipPath id="clip-path">
      <path id="Path_147" data-name="Path 147" class="cls-1" d="M1237.509,891.17c-176.394,0-101.523-88.975-212.172-118.634s-187.076,61.6-230.423,0-63.309-114.071-25.1-196.2,62.328-92.431,87.424-147.185S737.308,291.727,794.914,209.025s111.219-93.463,230.423-99.737,146.011,44.413,246.394,74.642,257.23-30.8,307.991,50.191-82.131,126.619-104.945,273.77,73.005,219.016,13.688,314.836S1237.509,891.17,1237.509,891.17Z" transform="translate(-749.531 -108.756)"/>
    </clipPath>
    <linearGradient id="linear-gradient" x1="1.644" y1="1" x2="1.644" gradientUnits="objectBoundingBox">
      <stop offset="0" stop-color="gray" stop-opacity="0.251"/>
      <stop offset="0.54" stop-color="gray" stop-opacity="0.122"/>
      <stop offset="1" stop-color="gray" stop-opacity="0.102"/>
    </linearGradient>
  </defs>
  <g id="Group_2" data-name="Group 2" transform="translate(-889 -162)">
    <g id="Group_1" data-name="Group 1" transform="translate(398.469 128.306)">
      <path id="Path_145" data-name="Path 145" class="cls-2" d="M1237.509,891.17c-176.394,0-101.523-88.975-212.172-118.634s-187.076,61.6-230.423,0-63.309-114.071-25.1-196.2,62.328-92.431,87.424-147.185S737.308,291.727,794.914,209.025s111.219-93.463,230.423-99.737,146.011,44.413,246.394,74.642,257.23-30.8,307.991,50.191-82.131,126.619-104.945,273.77,73.005,219.016,13.688,314.836S1237.509,891.17,1237.509,891.17Z" transform="translate(-259 -70.441)"/>
      <g id="Mask_Group_1" data-name="Mask Group 1" class="cls-3" transform="translate(490.531 33.694)">
        <path id="Path_146" data-name="Path 146" class="cls-1" d="M930.589,309.9s-31.76,21.662-31.76,86.854S932.476,481.4,928.27,567.1,904.086,664.884,882,739.539s-31.544,74.129-42.059,126.178-1.993,86.035-1.993,86.035l-117.876-62.9,6.309-218.709s14.721-161.928,14.721-176.649S868.695,351.275,870.8,347.069,930.589,309.9,930.589,309.9Z" transform="translate(-788.12 -284.072)"/>
      </g>
    </g>
    <g id="illustration" transform="translate(1070.25 363)">
      <path id="Path_1" data-name="Path 1" class="cls-4" d="M459.584,283.483c-13.413,17.055-8.2,41.971.32,61.922,2.854,6.681,6.083,13.75,4.877,20.912-1.471,8.759-9.273,15.175-17.5,18.547a52.1,52.1,0,0,1-46.625-3.84c-11.883-7.393-20.393-19.415-32.479-26.472-20.233-11.8-45.971-7.347-67.933.784-15.537,5.754-32.525,13.24-47.965,7.225-10.863-4.215-18.374-14.53-22.467-25.447-1.977-5.273-3.41-10.96-7.166-15.175a26.718,26.718,0,0,0-8.169-5.733c-27.4-13.577-61.964-6.323-88.554-21.363-17.978-10.129-29.494-29.313-34.552-49.314s-4.51-40.989-3.22-61.572c.919-14.64,2.567-30.266,11.921-41.567,9.893-11.95,26.876-16.4,42.224-14.125s29.262,10.37,41.5,19.9c15.3,11.917,29.481,26.758,48.265,31.589,12.789,3.288,26.244,1.488,39.438.868,22.054-1.041,44.113,1.265,66.045,3.794,21,2.428,42.153,5.1,62.146,11.929,14.155,4.835,25.5,13.607,38.869,19.736,8.713,4,18.214,5.1,26.459,10.188,10.163,6.268,19.474,17.173,16.861,29.928C479.413,268.35,466.7,274.432,459.584,283.483Z" transform="translate(-65.265 -98.69)"/>
      <path id="Path_2" data-name="Path 2" class="cls-4" d="M36.86,556.47S114,536.236,213.9,587.662,422.977,547.2,420.869,533.286s72.5,0,72.5,0v124.35H36.86Z" transform="translate(-36.106 -329.74)"/>
      <circle id="Ellipse_1" data-name="Ellipse 1" class="cls-5" cx="20.967" cy="20.967" r="20.967" transform="translate(33.481 0)"/>
      <path id="Path_3" data-name="Path 3" class="cls-6" d="M434.377,173.18l3.76,10.7-2.892,17.991s-4.371,14.332-3.933,21.312,0,16.528,0,16.528-10.488,19.137-1.749,26.978c2.032,1.817,3.731,1.454,5.143-.177a45.1,45.1,0,0,0,4.384,2.108l-7.335,28.487-6.993,13.91s-14.867,12.646-20.537,39.168c0,0-5.67,17.675-9.274,22.952a7.2,7.2,0,0,1-.535.712,29.786,29.786,0,0,1-1.547-2.786l-6.58,17.4s13.109,7.394,22.286,10.437,19.664-.422,22.724-4.35-6.116-8.262-12.675-10.875c-3.178-1.265-4.915-4.27-5.868-7.031-.084-.843-.152-1.808-.181-2.841-.139-4.936.62-11.6,4.738-16.659,7.427-9.134,18.792-31.749,18.792-31.749s11.381-12.178,13.986-16.962l15.736-26.269c8.73,9.893,17.476,33.225,17.476,33.225L486.8,336.7s11.381,30.447,14.859,33.49c.1.084.194.181.291.282l.089.1q.105.114.211.24l.084.105c.093.114.181.236.274.363l.063.1q.105.152.211.316l.1.156.185.312.084.148q.127.223.249.459l.089.169.173.346.1.2.177.379.072.16q.118.261.228.531l.084.207.156.384.084.215.194.5.046.126.2.552.072.207.152.422.063.185.2.611.025.084.173.544.055.181.164.535.038.126.181.611.034.122.139.485.051.177.126.459.038.131.139.523.067.253.063.253.08.312.021.084c.1.4.194.78.278,1.125l.105.422.046.207v.055a16.194,16.194,0,0,1-1.825-1.4,49.7,49.7,0,0,1,0,8.7c-.422,4.35,3.933,10.437,3.933,10.437s39.333-9.569,41.516-16.094-6.993-5.653-9.615-4.784-15.731-1.741-17.481-4.784a8.432,8.432,0,0,0-1.176-1.555,2.487,2.487,0,0,0-3.035-.5l-.1-.11-.114-.139-.076-.1-.139-.181h0c-.1-.131-.194-.27-.291-.422l-.105-.16q-.261-.422-.531-.9l-.034-.063c-2.786-5.088-5.788-15.474-6.479-17.944V354.6l-.055-.2v-.131l-.029-.1v-.051l-10.049-32.622c3.06-11.744,0-17.4,0-17.4l-5.682-26.531-3.208-12.013a1.6,1.6,0,0,0,.148-.164c-2.613-7.309-4.662-22.813-5.939-34.793q-.122-1.168-.236-2.28l9.674,4.456S509.593,252.772,517.9,243.2s-16.608-17.831-16.608-17.831l-15.7-10.416-.034-.459-1.749-13.067s-4.805-15.655-2.622-26.1c1.859-8.89-4.215-12.1-6.045-12.861a5.839,5.839,0,0,0-.889-.261c-2.4-.565-5.058-3.005-7.339-5.619a28.778,28.778,0,0,0-6.858-5.7,6.7,6.7,0,0,0,2.858-4.215c.362-2.006-.325-4-.94-5.969a53.285,53.285,0,0,1,3.094-6.323h.072q.274-.464.531-.881a18.969,18.969,0,0,0,16.773-18.783,18.761,18.761,0,0,0-2.356-9.126c1.96-.679,3.836-1.539,3.128-3.549-.481-1.362-1.758-2.247-2.753-3.292-2.635-2.769-3.435-6.926-6.188-9.577a9.412,9.412,0,0,0-2.723-1.8,14.547,14.547,0,0,0-9.611-1.2c-4,.733-7.731,2.5-11.638,3.629-3.435.995-7.031,1.509-10.323,2.913-5.619,2.39-9.944,7.25-12.536,12.755-2.293,4.864-3.372,10.256-5.863,15.015s-7.111,9.046-12.507,8.852c-1.4-.046-2.841-.384-4.148.1a5.058,5.058,0,0,0-2.411,2.2c-2.951,4.826-1.058,11.326-3.414,16.469-1.754,3.827-5.53,6.247-8.624,9.109s-5.754,7.111-4.291,11.061a8.071,8.071,0,0,0,4.477,4.388,11.38,11.38,0,0,0,3.267,1.2c2.951.594,5.969.236,8.957.025,8.081-.569,16.92-.266,23.336-5.189,2.643-2.028,4.679-4.826,6.795-7.465a55.831,55.831,0,0,0,1.362,11.942Zm11.638,27.353c.658,1.083,1.324,2.162,2.015,3.225,6.424,9.864-2.289,23.357-2.289,23.357a23.606,23.606,0,0,0-5.058,5.745c.114-4.152.6-8.894,2-12.271,2.175-5.256,3.043-14.93,3.334-20.069Z" transform="translate(-237.942 -74.496)"/>
      <path id="Path_4" data-name="Path 4" class="cls-7" d="M496.14,313l-3.414,21.249s-4.27,14.02-3.84,20.815,0,16.144,0,16.144-10.243,18.69-1.707,26.337,11.1-24.212,11.1-24.212-1.265-13.594,1.707-20.815,3.414-22.939,3.414-22.939Z" transform="translate(-294.639 -205.886)"/>
      <path id="Path_5" data-name="Path 5" class="cls-8" d="M496.14,313l-3.414,21.249s-4.27,14.02-3.84,20.815,0,16.144,0,16.144-10.243,18.69-1.707,26.337,11.1-24.212,11.1-24.212-1.265-13.594,1.707-20.815,3.414-22.939,3.414-22.939Z" transform="translate(-294.639 -205.886)"/>
      <path id="Path_6" data-name="Path 6" class="cls-7" d="M578.324,486.29l5.9,22.117,5.547,25.911s2.989,5.522,0,16.992l9.817,31.859s5.547,20.389,8.962,20.815-3.414,16.144-3.414,16.144l-9.392-5.522s-2.563-12.743-5.977-15.719-14.513-32.71-14.513-32.71l-3.414-20.815S561.172,516.9,551.78,510.1s-12.38-17.843-12.38-17.843Z" transform="translate(-326.813 -306.13)"/>
      <path id="Path_7" data-name="Path 7" class="cls-8" d="M539.43,492.285s2.989,11.044,12.38,17.843,20.06,35.261,20.06,35.261l3.414,20.815s11.1,29.734,14.513,32.71c2.5,2.184,4.552,9.632,5.48,13.438.333,1.383.514,2.28.514,2.28l9.391,5.522s6.829-15.719,3.414-16.144c-.531-.063-1.109-.611-1.716-1.488-3.288-4.767-7.246-19.327-7.246-19.327l-9.817-31.859c2.989-11.47,0-16.992,0-16.992l-5.547-25.911-5.9-22.113Z" transform="translate(-326.83 -306.147)"/>
      <path id="Path_8" data-name="Path 8" class="cls-7" d="M409.82,613.833l3.414,8.072L428.6,620.22a35.289,35.289,0,0,1-.784-6.669c-.135-4.822.607-11.331,4.637-16.271,7.246-8.945,18.332-31.024,18.332-31.024s11.1-11.9,13.657-16.566l21.367-35.669-.666-3.2,5.762-5.311H455.062l-8.536,33.132L439.7,552.236s-14.513,12.321-20.06,38.232c0,0-5.535,17.283-9.063,22.417A6.194,6.194,0,0,1,409.82,613.833Z" transform="translate(-251.854 -317.248)"/>
      <path id="Path_9" data-name="Path 9" class="cls-9" d="M671.87,771.8c.333,1.383.514,2.281.514,2.281l9.392,5.522s6.829-15.719,3.414-16.144c-.531-.063-1.109-.611-1.716-1.488a2.39,2.39,0,0,0-1.092,2.647,6.562,6.562,0,0,0,.674,1.813c1.265,2.108-4.27,5.522-4.27,5.522C676.916,774.35,673.881,773.09,671.87,771.8Z" transform="translate(-403.443 -465.604)"/>
      <path id="Path_10" data-name="Path 10" class="cls-10" d="M680.53,766.106a2.477,2.477,0,0,1,4.215-2.255,8.215,8.215,0,0,1,1.146,1.517c1.707,2.972,14.513,5.522,17.072,4.675s11.525-1.686,9.392,4.675-40.542,15.719-40.542,15.719-4.274-5.952-3.853-10.2a48.544,48.544,0,0,0,0-8.5s5.977,5.522,8.962,1.686c0,0,5.547-3.4,4.27-5.522A6.564,6.564,0,0,1,680.53,766.106Z" transform="translate(-401.164 -466.237)"/>
      <path id="Path_11" data-name="Path 11" class="cls-9" d="M409.82,760.508l3.414,8.072,15.365-1.686a35.291,35.291,0,0,1-.784-6.669,2.107,2.107,0,0,0-3.427-.489c-.792.843-1.6,1.745-2.188,2.487-1.707,2.108-7.254.843-7.254.843-1.437.476-3.145-1.589-4.367-3.494A6.194,6.194,0,0,1,409.82,760.508Z" transform="translate(-251.854 -463.923)"/>
      <path id="Path_12" data-name="Path 12" class="cls-10" d="M413.412,758.469a2.108,2.108,0,0,1,3.575.881c.776,3.022,2.479,6.922,6.192,8.4,6.4,2.529,15.365,6.8,12.38,10.618s-13.236,7.229-22.2,4.249-21.768-10.2-21.768-10.2l6.4-16.992s3.414,7.221,5.977,6.373c0,0,5.547,1.265,7.254-.843C411.819,760.214,412.62,759.321,413.412,758.469Z" transform="translate(-241.308 -461.821)"/>
      <path id="Path_13" data-name="Path 13" class="cls-7" d="M542.281,181.548s-10.243,14.02-7.684,23.791-20.486-6.373-20.486-6.373a33.858,33.858,0,0,0,9.817-28.036Z" transform="translate(-312.183 -123.702)"/>
      <path id="Path_14" data-name="Path 14" class="cls-11" d="M500.286,349.185c17.072,10.2,37.562,5.948,37.562,5.948l-.422-2.972.889.084c16.317,1.437,20.027-3.482,20.027-3.482-2.554-7.141-4.552-22.282-5.8-33.983-.181-1.686-.341-3.292-.489-4.8-.337-3.41-.59-6.285-.75-8.224-.139-1.707-.215-2.694-.215-2.694l-1.716-12.747s-4.7-15.293-2.563-25.49c1.817-8.683-4.106-11.8-5.9-12.557a5.7,5.7,0,0,0-.868-.257c-2.339-.552-4.949-2.951-7.166-5.48A28.782,28.782,0,0,0,520.9,234.4c-2.146-.776-3.971-1.6-3.971-1.6-2.989-3.4-11.1-1.265-11.1-1.265-9.817,6.374-4.7,27.188-4.7,27.188l4.08,11.6a85.147,85.147,0,0,0,9.274,18.256c6.276,9.636-2.238,22.813-2.238,22.813C499,322,500.286,349.185,500.286,349.185Z" transform="translate(-303.906 -158.377)"/>
      <path id="Path_15" data-name="Path 15" class="cls-8" d="M587.52,437.993l1.53,22.813c16.317,1.437,20.027-3.482,20.027-3.482-2.554-7.141-4.552-22.282-5.8-33.983-.181-1.686-.341-3.292-.489-4.8Z" transform="translate(-354.649 -266.938)"/>
      <path id="Path_16" data-name="Path 16" class="cls-9" d="M517.538,298.943s7.684,14.441,10.243,20.815,2.563,4.249,3.84,6.373S546.56,337.6,546.56,337.6l13.834,6.373c-.586-5.48-1.007-10.226-1.244-13.025l-13.017-8.641s-8.962-5.522-9.392-12.743-5.977-20.389-5.977-20.389-11.1-11.9-15.795-6.373S517.538,298.943,517.538,298.943Z" transform="translate(-311.766 -187.572)"/>
      <path id="Path_17" data-name="Path 17" class="cls-7" d="M530.777,284.145s5.547,13.168,5.977,20.389,9.392,12.743,9.392,12.743l28.171,18.69s24.33,8.072,16.22,17.417-20.92-10.176-20.92-10.176l-23.049-10.618s-13.657-9.345-14.939-11.47-1.265,0-3.84-6.373-10.243-20.815-10.243-20.815-7.254-10.618-2.563-16.144S530.777,284.145,530.777,284.145Z" transform="translate(-311.774 -184.67)"/>
      <path id="Path_18" data-name="Path 18" class="cls-9" d="M529.383,280.042s-8.536-6.373-10.243-8.5c-.754-.936-1.922-.8-2.993-.35a13.489,13.489,0,0,1-6.323,1.041c-1.867-.16-3.68-.055-3.469,1.007.422,2.108-1.265-11.044-1.265-11.044l7.254-2.529,9.392,5.1Z" transform="translate(-306.965 -175.036)"/>
      <path id="Path_19" data-name="Path 19" class="cls-11" d="M529.383,278.042s-8.536-6.373-10.243-8.5c-.754-.936-1.922-.8-2.993-.35a13.491,13.491,0,0,1-6.323,1.041c-1.867-.16-3.68-.055-3.469,1.007.422,2.108-1.265-11.044-1.265-11.044l7.254-2.529,9.392,5.1Z" transform="translate(-306.965 -173.879)"/>
      <path id="Path_20" data-name="Path 20" class="cls-9" d="M597.164,307.127a10.538,10.538,0,0,1-9.644-.637" transform="translate(-354.649 -202.12)"/>
      <path id="Path_21" data-name="Path 21" class="cls-9" d="M539.609,172.465c.32-2.529-2.841,2.736-3.2-.211l18.353,10.618s-1.05,1.437-2.386,3.7a18.83,18.83,0,0,1-2.108.122C544.752,186.7,543,176.275,539.609,172.465Z" transform="translate(-325.083 -124.179)"/>
      <ellipse id="Ellipse_2" data-name="Ellipse 2" class="cls-7" cx="18.568" cy="18.48" rx="18.568" ry="18.48" transform="translate(207.049 24.71)"/>
      <path id="Path_22" data-name="Path 22" class="cls-9" d="M475.714,123.561a9.449,9.449,0,0,1-.666,3.414c-.776,1.442-2.449,2.108-3.849,2.951-5.674,3.478-7.356,11.3-5.547,17.683.641,2.259,1.648,4.548,1.231,6.858-.721,3.967-5.261,6.024-9.295,6.378s-8.262-.3-12.035,1.168c-6.323,2.462-9.13,9.859-14.517,13.995-6.268,4.81-14.9,4.51-22.792,5.058-2.917.207-5.9.556-8.747-.025s-5.695-2.3-6.711-5.033c-1.429-3.853,1.172-8.034,4.215-10.833s6.711-5.159,8.43-8.9c2.3-5.025.422-11.381,3.334-16.085a4.944,4.944,0,0,1,2.352-2.15c1.265-.476,2.689-.148,4.051-.1,5.273.181,9.767-4,12.224-8.654s3.49-9.91,5.729-14.665c2.529-5.379,6.744-10.117,12.224-12.46,3.216-1.366,6.744-1.872,10.083-2.845,3.815-1.1,7.461-2.828,11.381-3.545s8.338-.244,11.2,2.5c2.689,2.588,3.473,6.647,6.045,9.354.974,1.024,2.221,1.888,2.689,3.216,1.109,3.145-4.27,3.41-6.062,4.67a11.731,11.731,0,0,0-4.966,8.047Z" transform="translate(-241.768 -80.051)"/>
      <path id="Path_23" data-name="Path 23" class="cls-12" d="M473.661,122.578a9.452,9.452,0,0,1-.666,3.414c-.776,1.442-2.449,2.108-3.849,2.951-5.674,3.478-7.356,11.3-5.547,17.683.641,2.259,1.648,4.548,1.231,6.858-.721,3.967-5.261,6.024-9.295,6.378s-8.262-.3-12.035,1.168c-6.323,2.462-9.13,9.859-14.517,13.995-6.268,4.81-14.9,4.51-22.792,5.058-2.917.207-5.9.556-8.747-.025s-5.686-2.306-6.7-5.02c-1.429-3.853,1.172-8.034,4.215-10.833s6.711-5.159,8.431-8.9c2.3-5.025.422-11.381,3.334-16.085a4.944,4.944,0,0,1,2.352-2.15c1.265-.476,2.689-.148,4.051-.1,5.273.181,9.767-4,12.224-8.654s3.49-9.91,5.729-14.665c2.529-5.379,6.744-10.117,12.224-12.46,3.216-1.366,6.744-1.872,10.083-2.845,3.815-1.1,7.461-2.828,11.381-3.545s8.338-.244,11.2,2.5c2.689,2.588,3.473,6.647,6.045,9.354.974,1.024,2.221,1.888,2.689,3.216,1.109,3.145-4.27,3.41-6.062,4.671A11.731,11.731,0,0,0,473.661,122.578Z" transform="translate(-240.588 -79.49)"/>
      <path id="Path_24" data-name="Path 24" class="cls-12" d="M66.1,759.654s-13.91-24.87,3.372-44.682,37.516-8.852,37.516-8.852,25.292,11.8,19.39,40.045c0,0-3.372,14.332-13.489,13.489Z" transform="translate(-49.957 -431.547)"/>
      <path id="Path_25" data-name="Path 25" class="cls-13" d="M66.1,759.654s-13.91-24.87,3.372-44.682,37.516-8.852,37.516-8.852,25.292,11.8,19.39,40.045c0,0-3.372,14.332-13.489,13.489Z" transform="translate(-49.957 -431.547)"/>
      <line id="Line_1" data-name="Line 1" class="cls-14" y1="46.401" x2="15.247" transform="translate(37.988 281.739)"/>
      <path id="Path_26" data-name="Path 26" class="cls-14" d="M154.445,725.759s-7.849-3.693-15.727-1.635c0,0-4.085-10.167-13.358-11.853" transform="translate(-87.301 -436.854)"/>
      <path id="Path_27" data-name="Path 27" class="cls-14" d="M146.091,756.185s-13.345-9.645-23.112-6.719c0,0-11.031-13.093-18.619-12.25" transform="translate(-75.153 -451.262)"/>
      <path id="Path_28" data-name="Path 28" class="cls-14" d="M132.728,793.779s-11.406-8.254-25.515-7.7c0,0-10.736-12.945-20.853-13.788" transform="translate(-64.74 -471.574)"/>
      <path id="Path_29" data-name="Path 29" class="cls-14" d="M95.942,823.069a29.925,29.925,0,0,0-5.45-1.952S81.7,809.685,64.1,813.407" transform="translate(-51.863 -494.928)"/>
      <path id="Path_30" data-name="Path 30" class="cls-15" d="M343.377,655.936s-23.184-37.8-17-71.908a67.2,67.2,0,0,0-5.75-42.115A113.009,113.009,0,0,0,309.71,524.37" transform="translate(-193.943 -328.158)"/>
      <path id="Path_31" data-name="Path 31" class="cls-12" d="M293.227,463.753c1.362,5.033-3.794,22.092-3.794,22.092s-13.067-12.131-14.416-17.164a9.441,9.441,0,1,1,18.229-4.924Z" transform="translate(-173.683 -289.056)"/>
      <path id="Path_32" data-name="Path 32" class="cls-12" d="M347.128,512.889c-1.593,4.966-15.2,16.473-15.2,16.473s-4.367-17.283-2.774-22.244a9.441,9.441,0,1,1,17.979,5.771Z" transform="translate(-204.986 -314.384)"/>
      <path id="Path_33" data-name="Path 33" class="cls-12" d="M371.839,620.656c-3.882,3.482-21.439,6.546-21.439,6.546s4.953-17.122,8.852-20.6a9.441,9.441,0,1,1,12.6,14.059Z" transform="translate(-217.481 -374.33)"/>
      <path id="Path_34" data-name="Path 34" class="cls-12" d="M376.367,713c-3.237,4.085-20.027,10.074-20.027,10.074s1.99-17.7,5.227-21.8A9.442,9.442,0,1,1,376.367,713Z" transform="translate(-220.917 -428.419)"/>
      <path id="Path_35" data-name="Path 35" class="cls-12" d="M284.748,559.184c4.557,2.529,22.341,1.619,22.341,1.619s-8.633-15.6-13.19-18.125a9.442,9.442,0,1,0-9.169,16.508Z" transform="translate(-176.681 -338.06)"/>
      <path id="Path_36" data-name="Path 36" class="cls-12" d="M285.829,664.012c5.1,1.054,21.818-5.143,21.818-5.143s-12.89-12.3-18.008-13.35a9.442,9.442,0,0,0-3.794,18.492Z" transform="translate(-175.917 -398.156)"/>
      <path id="Path_37" data-name="Path 37" class="cls-12" d="M305.989,767.126c4.856,1.9,22.375-1.383,22.375-1.383s-10.639-14.3-15.5-16.2a9.441,9.441,0,1,0-6.88,17.584Z" transform="translate(-188.316 -458.038)"/>
      <path id="Path_38" data-name="Path 38" class="cls-16" d="M293.227,463.753c1.362,5.033-3.794,22.092-3.794,22.092s-13.067-12.131-14.416-17.164a9.441,9.441,0,1,1,18.229-4.924Z" transform="translate(-173.683 -289.056)"/>
      <path id="Path_39" data-name="Path 39" class="cls-16" d="M347.128,512.889c-1.593,4.966-15.2,16.473-15.2,16.473s-4.367-17.283-2.774-22.244a9.441,9.441,0,1,1,17.979,5.771Z" transform="translate(-204.986 -314.384)"/>
      <path id="Path_40" data-name="Path 40" class="cls-16" d="M371.839,620.656c-3.882,3.482-21.439,6.546-21.439,6.546s4.953-17.122,8.852-20.6a9.441,9.441,0,1,1,12.6,14.059Z" transform="translate(-217.481 -374.33)"/>
      <path id="Path_41" data-name="Path 41" class="cls-16" d="M376.367,713c-3.237,4.085-20.027,10.074-20.027,10.074s1.99-17.7,5.227-21.8A9.442,9.442,0,1,1,376.367,713Z" transform="translate(-220.917 -428.419)"/>
      <path id="Path_42" data-name="Path 42" class="cls-16" d="M284.748,559.184c4.557,2.529,22.341,1.619,22.341,1.619s-8.633-15.6-13.19-18.125a9.442,9.442,0,1,0-9.169,16.508Z" transform="translate(-176.681 -338.06)"/>
      <path id="Path_43" data-name="Path 43" class="cls-16" d="M285.829,664.012c5.1,1.054,21.818-5.143,21.818-5.143s-12.89-12.3-18.008-13.35a9.442,9.442,0,0,0-3.794,18.492Z" transform="translate(-175.917 -398.156)"/>
      <path id="Path_44" data-name="Path 44" class="cls-16" d="M305.989,767.126c4.856,1.9,22.375-1.383,22.375-1.383s-10.639-14.3-15.5-16.2a9.441,9.441,0,1,0-6.88,17.584Z" transform="translate(-188.316 -458.038)"/>
      <path id="Path_45" data-name="Path 45" class="cls-15" d="M101.88,685.165s31.4-49.352,35.189-70.428a271.338,271.338,0,0,1,10.96-40.466" transform="translate(-73.718 -357.024)"/>
      <path id="Path_46" data-name="Path 46" class="cls-12" d="M201.172,674.27l-19.812,1.686S191.9,694.082,201.172,674.27Z" transform="translate(-119.695 -414.872)"/>
      <path id="Path_47" data-name="Path 47" class="cls-12" d="M145.416,648.27l15.689,12.566S140.779,668.925,145.416,648.27Z" transform="translate(-98.505 -399.832)"/>
      <path id="Path_48" data-name="Path 48" class="cls-12" d="M209.856,633.27,192,635.656S207.748,648.445,209.856,633.27Z" transform="translate(-125.85 -391.154)"/>
      <path id="Path_49" data-name="Path 49" class="cls-12" d="M163.949,618.27l11.777,8.266S161.419,632.6,163.949,618.27Z" transform="translate(-109.45 -382.477)"/>
      <path id="Path_50" data-name="Path 50" class="cls-12" d="M202.67,596.136s14.623-3.874,16.73-3.031.843,10.117-5.058,10.538S202.67,596.136,202.67,596.136Z" transform="translate(-132.023 -367.851)"/>
      <path id="Path_51" data-name="Path 51" class="cls-12" d="M174.479,574.27s9.274,8.852,9.7,10.96-7.587,7.166-11.8,0S174.479,574.27,174.479,574.27Z" transform="translate(-113.658 -357.024)"/>
      <circle id="Ellipse_3" data-name="Ellipse 3" class="cls-17" cx="4.215" cy="4.215" r="4.215" transform="translate(73.889 213.873)"/>
      <circle id="Ellipse_4" data-name="Ellipse 4" class="cls-17" cx="4.215" cy="4.215" r="4.215" transform="translate(66.301 211.766)"/>
      <path id="Path_52" data-name="Path 52" class="cls-12" d="M36.86,688.61V610.628s37.937-9.7,45.1,37.094S36.86,688.61,36.86,688.61Z" transform="translate(-36.106 -377.575)"/>
      <path id="Path_53" data-name="Path 53" class="cls-14" d="M89.652,645.4s-7.979-7.166-16.018-5.48c0,0-5.058-11.381-9.274-12.646" transform="translate(-52.014 -387.684)"/>
      <path id="Path_54" data-name="Path 54" class="cls-14" d="M70.787,668.851s-5.48-8.152-19.812-8.5c0,0-8.431-15.525-14.125-16.579" transform="translate(-36.1 -397.228)"/>
      <path id="Path_55" data-name="Path 55" class="cls-14" d="M70.793,716.408s-11.853-16.085-26.371-16.895c0,0-4.4-5.939-7.562-6.323" transform="translate(-36.106 -425.817)"/>
      <path id="Path_56" data-name="Path 56" class="cls-14" d="M58.389,709.7s-5.29-18-21.519-23.407L59.843,649.27" transform="translate(-36.112 -400.41)"/>
      <path id="Path_57" data-name="Path 57" class="cls-12" d="M330.313,697.858s13.91-22.762-20.655-56.484-32.457-40.045-29.507-45.1c0,0-27.821,3.372-21.919,45.1s31.193,56.484,31.193,56.484Z" transform="translate(-163.689 -369.751)"/>
      <path id="Path_58" data-name="Path 58" class="cls-15" d="M332.939,697.858s-10.327-29.928-25.924-48.054-12.646-48.054-4.637-53.534" transform="translate(-185.915 -369.751)"/>
      <path id="Path_59" data-name="Path 59" class="cls-18" d="M753.353,450.69s23.386,45.908,4.329,71.027,1.732,93.549,1.732,93.549" transform="translate(-448.431 -285.536)"/>
      <path id="Path_60" data-name="Path 60" class="cls-16" d="M757.062,394.8c0,8.852-6.5,16.018-6.5,16.018s-6.5-7.166-6.5-16.018,6.5-16.018,6.5-16.018S757.062,385.95,757.062,394.8Z" transform="translate(-445.209 -243.938)"/>
      <path id="Path_61" data-name="Path 61" class="cls-19" d="M771.018,450.69s-23.386,45.908-4.329,71.027-1.733,93.549-1.733,93.549" transform="translate(-453.969 -285.536)"/>
      <path id="Path_62" data-name="Path 62" class="cls-17" d="M770.78,394.8c0,8.852,6.5,16.018,6.5,16.018s6.5-7.166,6.5-16.018-6.5-16.018-6.5-16.018S770.78,385.95,770.78,394.8Z" transform="translate(-460.66 -243.938)"/>
      <path id="Path_63" data-name="Path 63" class="cls-18" d="M804.732,450.69s23.386,45.908,4.333,71.027,1.733,93.549,1.733,93.549" transform="translate(-478.155 -285.536)"/>
      <path id="Path_64" data-name="Path 64" class="cls-16" d="M808.432,394.8c0,8.852-6.5,16.018-6.5,16.018s-6.5-7.166-6.5-16.018,6.5-16.018,6.5-16.018S808.432,385.95,808.432,394.8Z" transform="translate(-474.925 -243.938)"/>
      <path id="Path_65" data-name="Path 65" class="cls-16" d="M795.95,482.018c-6.137,6.378-15.79,7.044-15.79,7.044s.291-9.7,6.428-16.052,15.79-7.01,15.79-7.01S802.088,475.657,795.95,482.018Z" transform="translate(-466.086 -294.393)"/>
      <path id="Path_66" data-name="Path 66" class="cls-16" d="M797.4,557.142c-6.137,6.378-15.79,7.044-15.79,7.044s.291-9.7,6.428-16.052,15.79-7.044,15.79-7.044S803.534,550.747,797.4,557.142Z" transform="translate(-466.925 -337.831)"/>
      <path id="Path_67" data-name="Path 67" class="cls-16" d="M718.98,609.75c5.8,6.681,5.6,16.359,5.6,16.359s-9.611-1.159-15.411-7.84-5.6-16.359-5.6-16.359S713.18,603.069,718.98,609.75Z" transform="translate(-421.78 -373.013)"/>
      <path id="Path_68" data-name="Path 68" class="cls-16" d="M729.645,455.289c7.377,4.89,9.767,14.269,9.767,14.269s-9.569,1.45-16.945-3.435-9.767-14.269-9.767-14.269S722.269,450.4,729.645,455.289Z" transform="translate(-427.062 -286.093)"/>
      <path id="Path_69" data-name="Path 69" class="cls-19" d="M822.388,450.69S799,496.6,818.059,521.717s-1.733,93.549-1.733,93.549" transform="translate(-483.685 -285.536)"/>
      <path id="Path_70" data-name="Path 70" class="cls-17" d="M822.15,394.8c0,8.852,6.5,16.018,6.5,16.018s6.5-7.166,6.5-16.018-6.5-16.018-6.5-16.018S822.15,385.95,822.15,394.8Z" transform="translate(-490.376 -243.938)"/>
      <path id="Path_71" data-name="Path 71" class="cls-17" d="M817.492,496.254c-6.213,6.323-6.622,15.972-6.622,15.972s9.661-.552,15.875-6.854,6.622-15.972,6.622-15.972S823.705,489.948,817.492,496.254Z" transform="translate(-483.851 -307.929)"/>
      <path id="Path_72" data-name="Path 72" class="cls-12" d="M961.492,188.254c-6.213,6.323-6.622,15.972-6.622,15.972s9.661-.552,15.875-6.854,6.622-15.972,6.622-15.972S967.705,181.948,961.492,188.254Z" transform="translate(-567.151 -129.759)"/>
      <path id="Path_73" data-name="Path 73" class="cls-16" d="M84.492,416.254c-6.213,6.323-6.622,15.972-6.622,15.972s9.661-.552,15.875-6.854,6.622-15.972,6.622-15.972S90.705,409.948,84.492,416.254Z" transform="translate(-59.829 -261.651)"/>
      <path id="Path_74" data-name="Path 74" class="cls-12" d="M905.492,465.254c-6.213,6.323-6.622,15.972-6.622,15.972s9.661-.552,15.875-6.854,6.622-15.972,6.622-15.972S911.705,458.948,905.492,465.254Z" transform="translate(-534.757 -289.996)"/>
      <path id="Path_75" data-name="Path 75" class="cls-12" d="M168.7,456.133c-8.186-3.372-17.283-.084-17.283-.084s4.165,8.738,12.351,12.1,17.283.084,17.283.084S176.889,459.5,168.7,456.133Z" transform="translate(-102.376 -287.805)"/>
      <path id="Path_76" data-name="Path 76" class="cls-17" d="M416.912,414.42c-4.729-7.478-14.058-10.07-14.058-10.07s-1.657,9.535,3.077,17.017,14.058,10.07,14.058,10.07S421.642,421.906,416.912,414.42Z" transform="translate(-247.662 -258.73)"/>
      <path id="Path_77" data-name="Path 77" class="cls-17" d="M846.392,600.284c-6.213,6.323-6.622,15.972-6.622,15.972s9.661-.552,15.875-6.854,6.622-15.972,6.622-15.972S852.605,593.978,846.392,600.284Z" transform="translate(-500.569 -368.108)"/>
      <path id="Path_78" data-name="Path 78" class="cls-19" d="M813,555.715s14.079-22.189,33.836-22.665" transform="translate(-485.083 -333.18)"/>
      <path id="Path_79" data-name="Path 79" class="cls-18" d="M740.566,523.9s-14.079-22.189-33.836-22.665" transform="translate(-423.609 -314.773)"/>
      <path id="Path_80" data-name="Path 80" class="cls-19" d="M782.63,599.065s14.079-22.189,33.836-22.665" transform="translate(-467.515 -358.257)"/>
      <circle id="Ellipse_5" data-name="Ellipse 5" class="cls-17" cx="3.655" cy="3.655" r="3.655" transform="translate(357.44 196.043)"/>
      <circle id="Ellipse_6" data-name="Ellipse 6" class="cls-16" cx="3.655" cy="3.655" r="3.655" transform="translate(279.787 182.95)"/>
      <path id="Path_81" data-name="Path 81" class="cls-18" d="M760.756,616.405s-14.079-22.189-33.836-22.665" transform="translate(-435.288 -368.287)"/>
      <circle id="Ellipse_7" data-name="Ellipse 7" class="cls-16" cx="3.655" cy="3.655" r="3.655" transform="translate(288.314 221.929)"/>
      <circle id="Ellipse_8" data-name="Ellipse 8" class="cls-17" cx="3.655" cy="3.655" r="3.655" transform="translate(345.562 214.62)"/>
      <path id="Path_82" data-name="Path 82" class="cls-12" d="M478.7,614.131s-13.91-15.6-18.969,3.794-8.009,21.919-18.126,16.861-20.655,18.969,4.215,36.251,10.96,34.354,10.96,34.354h88.942s11.8-34.354-13.91-46.157-24.87-20.655-24.027-32.458S478.7,614.131,478.7,614.131Z" transform="translate(-263.81 -376.652)"/>
      <path id="Path_83" data-name="Path 83" class="cls-15" d="M516.86,608.2s57.749,76.115,37.937,97.191" transform="translate(-313.774 -376.652)"/>
      <path id="Path_84" data-name="Path 84" class="cls-15" d="M481.44,653.154s13.666,11.63,36.007,5.729,16.831-21.043,16.831-21.043" transform="translate(-293.284 -393.798)"/>
      <path id="Path_85" data-name="Path 85" class="cls-15" d="M548.857,716.518s-29.73-14.42-44.682-9.042c-38.915,14-67.866-23.707-67.866-23.707" transform="translate(-267.178 -420.367)"/>
      <path id="Path_86" data-name="Path 86" class="cls-12" d="M402.887,653.894s18.126-13.489-4.637-60.7c0,0-30.35-37.516,0-72.924,0,0-66.179,1.686-64.915,63.229s33.09,70.395,33.09,70.395Z" transform="translate(-207.599 -325.787)"/>
      <path id="Path_87" data-name="Path 87" class="cls-15" d="M426.349,653.893s-4.565-32.457-16.789-52.269a42.494,42.494,0,0,1-5.134-12.945,53.051,53.051,0,0,1,14.939-49.622l19.285-18.787" transform="translate(-247.989 -325.787)"/>
      <path id="Path_88" data-name="Path 88" class="cls-9" d="M402.887,653.894s18.126-13.489-4.637-60.7c0,0-30.35-37.516,0-72.924,0,0-66.179,1.686-64.915,63.229s33.09,70.395,33.09,70.395Z" transform="translate(-207.599 -325.787)"/>
      <path id="Path_89" data-name="Path 89" class="cls-12" d="M961.618,370.77s-9.7,78.825,0,127.3-49,69.341-49,69.341h86.092S1010.515,410.393,961.618,370.77Z" transform="translate(-542.711 -239.305)"/>
      <path id="Path_90" data-name="Path 90" class="cls-15" d="M1028.86,370.77s24.512,67.9,20.895,102.431-8.671,94.843-8.671,94.843" transform="translate(-609.953 -239.305)"/>
      <path id="Path_91" data-name="Path 91" class="cls-12" d="M852.006,706.008S789.983,692.139,868.9,611c0,0,34.017,32.242,21.54,72.321-5.016,16.115-21.161,26.063-37.516,22.876Z" transform="translate(-494.245 -378.272)"/>
      <path id="Path_92" data-name="Path 92" class="cls-20" d="M852.274,706.008c-1.362-.3-60.7-15.238,16.895-95.008,0,0,34.017,32.242,21.54,72.321-5.016,16.115-21.161,26.063-37.516,22.876Z" transform="translate(-494.513 -378.272)"/>
      <path id="Path_93" data-name="Path 93" class="cls-14" d="M885.73,706.467S918.491,657.111,901.811,611" transform="translate(-527.156 -378.272)"/>
      <path id="Path_94" data-name="Path 94" class="cls-12" d="M243.006,706.008S180.983,692.139,259.9,611c0,0,34.017,32.242,21.54,72.321-5.016,16.115-21.161,26.063-37.516,22.876Z" transform="translate(-141.954 -378.272)"/>
      <path id="Path_95" data-name="Path 95" class="cls-20" d="M243.274,706.008c-1.362-.3-60.7-15.238,16.895-95.008,0,0,34.017,32.242,21.54,72.321-5.016,16.115-21.161,26.063-37.516,22.876Z" transform="translate(-142.222 -378.272)"/>
      <path id="Path_96" data-name="Path 96" class="cls-14" d="M276.73,706.467S309.491,657.111,292.811,611" transform="translate(-174.865 -378.272)"/>
      <path id="Path_97" data-name="Path 97" class="cls-12" d="M938.479,333.77s-31.661,31.661-13.788,78.64S894.05,537.523,894.05,537.523s.518-.076,1.484-.245c65.024-11.478,97.339-85.852,61.176-141.1C943.271,375.636,932.236,351.537,938.479,333.77Z" transform="translate(-531.969 -217.901)"/>
      <path id="Path_98" data-name="Path 98" class="cls-9" d="M938.479,333.77s-31.661,31.661-13.788,78.64S894.05,537.523,894.05,537.523s.518-.076,1.484-.245c65.024-11.478,97.339-85.852,61.176-141.1C943.271,375.636,932.236,351.537,938.479,333.77Z" transform="translate(-531.969 -217.901)"/>
      <path id="Path_99" data-name="Path 99" class="cls-14" d="M938.479,333.77s-17.873,38.81,0,70.471,3.064,120.514-44.429,133.282" transform="translate(-531.969 -217.901)"/>
      <path id="Path_100" data-name="Path 100" class="cls-12" d="M983.792,637.017s-36.129-5.754-39.421,26.624S874.9,700.507,874.9,700.507s.421.3,1.239.843c54.642,35.872,106.878,22.851,99-24.781C972.218,658.844,972.458,641.059,983.792,637.017Z" transform="translate(-520.891 -393.093)"/>
      <path id="Path_101" data-name="Path 101" class="cls-21" d="M983.792,637.017s-36.129-5.754-39.421,26.624S874.9,700.507,874.9,700.507s.421.3,1.239.843c54.642,35.872,106.878,22.851,99-24.781C972.218,658.844,972.458,641.059,983.792,637.017Z" transform="translate(-520.891 -393.093)"/>
      <path id="Path_102" data-name="Path 102" class="cls-14" d="M983.787,637.56s-28.044,6.154-25.743,31.652S916.4,725.275,874.89,701.05" transform="translate(-520.885 -393.636)"/>
      <path id="Path_103" data-name="Path 103" class="cls-15" d="M1064.045,610.455s-15.373-52.2,2.883-90.628a82.426,82.426,0,0,0,6.669-51.721,138.684,138.684,0,0,0-7.322-24.276" transform="translate(-626.805 -281.568)"/>
      <path id="Path_104" data-name="Path 104" class="cls-12" d="M1072.8,370.342c0,6.4-11.583,24.95-11.583,24.95s-11.583-18.547-11.583-24.95a11.592,11.592,0,1,1,23.184,0Z" transform="translate(-621.968 -232.351)"/>
      <path id="Path_105" data-name="Path 105" class="cls-12" d="M1118.051,445.772c-3.478,5.37-23.281,14.648-23.281,14.648s.358-21.869,3.836-27.239a11.583,11.583,0,1,1,19.446,12.591Z" transform="translate(-648.08 -272.348)"/>
      <path id="Path_106" data-name="Path 106" class="cls-12" d="M1110.272,583.907c-5.712,2.879-27.492.889-27.492.889s11.348-18.695,17.059-21.574a11.583,11.583,0,1,1,10.433,20.685Z" transform="translate(-641.144 -349.915)"/>
      <path id="Path_107" data-name="Path 107" class="cls-12" d="M1085.024,693.641c-5.143,3.794-26.944,5.522-26.944,5.522s8.009-20.343,13.168-24.149a11.584,11.584,0,1,1,13.776,18.627Z" transform="translate(-626.856 -413.988)"/>
      <path id="Path_108" data-name="Path 108" class="cls-12" d="M1032.258,480.7c4.591,4.456,25.966,9.075,25.966,9.075s-5.235-21.236-9.826-25.692a11.583,11.583,0,1,0-16.141,16.617Z" transform="translate(-609.886 -291.391)"/>
      <path id="Path_109" data-name="Path 109" class="cls-12" d="M999.533,604.99c5.712,2.879,27.492.889,27.492.889s-11.347-18.695-17.08-21.586a11.583,11.583,0,1,0-10.429,20.685Z" transform="translate(-589.292 -362.103)"/>
      <path id="Path_110" data-name="Path 110" class="cls-12" d="M990.845,733.8c5.143,3.794,26.944,5.522,26.944,5.522s-8.009-20.343-13.168-24.149A11.583,11.583,0,1,0,990.844,733.8Z" transform="translate(-585.245 -437.218)"/>
      <path id="Path_111" data-name="Path 111" class="cls-16" d="M1072.8,370.342c0,6.4-11.583,24.95-11.583,24.95s-11.583-18.547-11.583-24.95a11.592,11.592,0,1,1,23.184,0Z" transform="translate(-621.968 -232.351)"/>
      <path id="Path_112" data-name="Path 112" class="cls-16" d="M1118.051,445.772c-3.478,5.37-23.281,14.648-23.281,14.648s.358-21.869,3.836-27.239a11.583,11.583,0,1,1,19.446,12.591Z" transform="translate(-648.08 -272.348)"/>
      <path id="Path_113" data-name="Path 113" class="cls-16" d="M1110.272,583.907c-5.712,2.879-27.492.889-27.492.889s11.348-18.695,17.059-21.574a11.583,11.583,0,1,1,10.433,20.685Z" transform="translate(-641.144 -349.915)"/>
      <path id="Path_114" data-name="Path 114" class="cls-16" d="M1085.024,693.641c-5.143,3.794-26.944,5.522-26.944,5.522s8.009-20.343,13.168-24.149a11.584,11.584,0,1,1,13.776,18.627Z" transform="translate(-626.856 -413.988)"/>
      <path id="Path_115" data-name="Path 115" class="cls-16" d="M1032.258,480.7c4.591,4.456,25.966,9.075,25.966,9.075s-5.235-21.236-9.826-25.692a11.583,11.583,0,1,0-16.141,16.617Z" transform="translate(-609.886 -291.391)"/>
      <path id="Path_116" data-name="Path 116" class="cls-16" d="M999.533,604.99c5.712,2.879,27.492.889,27.492.889s-11.347-18.695-17.08-21.586a11.583,11.583,0,1,0-10.429,20.685Z" transform="translate(-589.292 -362.103)"/>
      <path id="Path_117" data-name="Path 117" class="cls-16" d="M990.845,733.8c5.143,3.794,26.944,5.522,26.944,5.522s-8.009-20.343-13.168-24.149A11.583,11.583,0,1,0,990.844,733.8Z" transform="translate(-585.245 -437.218)"/>
      <path id="Path_118" data-name="Path 118" class="cls-12" d="M1000.152,782.355c2.411-2.243,4.675-4.885,5.37-8.106s-.679-7.082-3.752-8.258c-3.448-1.319-7.132,1.071-9.923,3.482s-5.994,5.168-9.649,4.637a14.69,14.69,0,0,0,4.544-13.746,5.741,5.741,0,0,0-1.265-2.791c-1.914-2.044-5.383-1.168-7.672.443-7.288,5.126-9.32,15.023-9.358,23.93-.733-3.212-.114-6.563-.135-9.859s-.915-6.943-3.705-8.7a11.075,11.075,0,0,0-5.644-1.328c-3.275-.122-6.921.207-9.16,2.6-2.778,2.976-2.057,7.971.358,11.246s6.1,5.328,9.48,7.587c2.58,1.724,5.189,3.739,6.774,6.462a6.4,6.4,0,0,1,.5,1.155h20.532A57.22,57.22,0,0,0,1000.152,782.355Z" transform="translate(-563.186 -462.371)"/>
      <path id="Path_119" data-name="Path 119" class="cls-12" d="M215.595,802.839c1.829-1.387,3.549-3.027,4.076-5.02a4.245,4.245,0,0,0-2.85-5.113c-2.618-.818-5.412.662-7.528,2.158s-4.548,3.2-7.322,2.883a8.152,8.152,0,0,0,3.448-8.51,3.3,3.3,0,0,0-.957-1.728c-1.45-1.265-4.085-.721-5.821.274-5.53,3.174-7.073,9.3-7.1,14.817-.556-1.99-.089-4.064-.1-6.1s-.7-4.3-2.807-5.4a10.125,10.125,0,0,0-4.283-.822c-2.487-.076-5.252.131-6.951,1.61-2.108,1.842-1.564,4.936.274,6.964s4.637,3.3,7.2,4.7a15.068,15.068,0,0,1,5.143,4,3.636,3.636,0,0,1,.379.717h15.6a44.8,44.8,0,0,0,9.611-5.425Z" transform="translate(-116.617 -479.951)"/>
      <path id="Path_120" data-name="Path 120" class="cls-12" d="M834.595,802.839c1.829-1.387,3.549-3.027,4.076-5.02a4.245,4.245,0,0,0-2.849-5.113c-2.618-.818-5.412.662-7.529,2.158s-4.548,3.2-7.322,2.883a8.152,8.152,0,0,0,3.448-8.51,3.3,3.3,0,0,0-.957-1.728c-1.45-1.265-4.085-.721-5.821.274-5.53,3.174-7.073,9.3-7.1,14.817-.556-1.99-.089-4.064-.1-6.1s-.7-4.3-2.807-5.4a10.125,10.125,0,0,0-4.283-.822c-2.487-.076-5.252.131-6.951,1.61-2.108,1.842-1.564,4.936.274,6.964s4.637,3.3,7.2,4.7a15.068,15.068,0,0,1,5.143,4,3.636,3.636,0,0,1,.379.717h15.6A44.8,44.8,0,0,0,834.595,802.839Z" transform="translate(-474.693 -479.951)"/>
      <path id="Path_121" data-name="Path 121" class="cls-12" d="M499.391,471.052c-3.267,2.9-6.529,7.436-4.953,13.759,3.115,12.443,18.813,13.152,23.281,25.367a19.039,19.039,0,0,1,.518,10.568c-1.345,6.142-4.569,10.538-6.993,15.693a27.2,27.2,0,0,0-2.028,19.12A31.429,31.429,0,0,0,521.2,572.02c5.033,3.553,10.247,5.252,15.4,7.516a99.665,99.665,0,0,1,17.89,10.323,34.994,34.994,0,0,1,7.111,6.378,55.729,55.729,0,0,1,6.121,10.479c.9,1.829.658,5.48,2.7,5.48,52.1-.177,15.6-.2,41.174-.08,4.548.021,11.057.051,20.377.08,9.919.034,8.131-17.864,6.825-29.507-1.855-16.49-15.714-30.08-22.619-46.14-4.949-11.508-6.112-23.926-10.251-35.724a83.746,83.746,0,0,0-30.207-39.969c-12.393-8.578-25.292-11.942-37.566-13.067-5.193-.481-10.424-.565-14.783,1.636-4.637,2.339-5.707,8.228-9.273,11.857C509.98,465.517,503.83,467.106,499.391,471.052Z" transform="translate(-300.567 -283.696)"/>
      <path id="Path_122" data-name="Path 122" class="cls-13" d="M499.391,471.052c-3.267,2.9-6.529,7.436-4.953,13.759,3.115,12.443,18.813,13.152,23.281,25.367a19.039,19.039,0,0,1,.518,10.568c-1.345,6.142-4.569,10.538-6.993,15.693a27.2,27.2,0,0,0-2.028,19.12A31.429,31.429,0,0,0,521.2,572.02c5.033,3.553,10.247,5.252,15.4,7.516a99.665,99.665,0,0,1,17.89,10.323,34.994,34.994,0,0,1,7.111,6.378,55.729,55.729,0,0,1,6.121,10.479c.9,1.829.658,5.48,2.7,5.48,52.1-.177,15.6-.2,41.174-.08,4.548.021,11.057.051,20.377.08,9.919.034,8.131-17.864,6.825-29.507-1.855-16.49-15.714-30.08-22.619-46.14-4.949-11.508-6.112-23.926-10.251-35.724a83.746,83.746,0,0,0-30.207-39.969c-12.393-8.578-25.292-11.942-37.566-13.067-5.193-.481-10.424-.565-14.783,1.636-4.637,2.339-5.707,8.228-9.273,11.857C509.98,465.517,503.83,467.106,499.391,471.052Z" transform="translate(-300.567 -283.696)"/>
      <path id="Path_123" data-name="Path 123" class="cls-15" d="M555.44,459.28s55.5,80.393,91.656,159.686" transform="translate(-336.091 -290.505)"/>
      <path id="Path_124" data-name="Path 124" class="cls-15" d="M495.68,537.75s49.534.594,72.734,42.574" transform="translate(-301.522 -335.898)"/>
      <path id="Path_125" data-name="Path 125" class="cls-15" d="M533.08,696.872s61.416-24.735,74.058-.683" transform="translate(-323.157 -421.468)"/>
      <path id="Path_126" data-name="Path 126" class="cls-15" d="M677.56,478.48s-12.646,25.8-4.586,73.7" transform="translate(-402.528 -301.612)"/>
      <path id="Path_127" data-name="Path 127" class="cls-15" d="M778.1,764.207s-9.274,16.718-42.92-3.667" transform="translate(-440.066 -464.777)"/>
      <path id="Path_128" data-name="Path 128" class="cls-15" d="M761.84,814.42" transform="translate(-455.489 -495.945)"/>
      <path id="Path_129" data-name="Path 129" class="cls-12" d="M928.018,657.08s9.32,12.19-4.308,30.59-24.87,33.937-20.313,45.407c0,0,20.554-34.177,37.284-34.654S946.417,677.634,928.018,657.08Z" transform="translate(-536.779 -404.928)"/>
      <path id="Path_130" data-name="Path 130" class="cls-9" d="M928.76,657.08a15.091,15.091,0,0,1,1.905,3.823c16.321,19.179,25.018,37.094,9.328,37.516-14.614.422-32.146,26.556-36.344,33.153a14.219,14.219,0,0,0,.5,1.5S924.7,698.9,941.432,698.419,947.16,677.634,928.76,657.08Z" transform="translate(-537.522 -404.928)"/>
      <path id="Path_131" data-name="Path 131" class="cls-17" d="M1001.37,690.161c0,4.291-.481,7.769-1.075,7.769s-1.075-3.478-1.075-7.769.6-2.272,1.193-2.272S1001.37,685.87,1001.37,690.161Z" transform="translate(-592.807 -422.475)"/>
      <path id="Path_132" data-name="Path 132" class="cls-17" d="M1008.338,702.044c-3.769,2.053-7.052,3.3-7.335,2.774s2.529-2.609,6.323-4.662,2.281-.561,2.567-.038S1012.1,699.992,1008.338,702.044Z" transform="translate(-593.827 -429.237)"/>
      <path id="Path_133" data-name="Path 133" class="cls-12" d="M817.715,657.08s-9.32,12.19,4.3,30.59,24.87,33.937,20.313,45.407c0,0-20.554-34.177-37.284-34.654S799.316,677.634,817.715,657.08Z" transform="translate(-475.711 -404.928)"/>
      <path id="Path_134" data-name="Path 134" class="cls-9" d="M817.711,657.08a15.087,15.087,0,0,0-1.905,3.823c-16.322,19.179-25.018,37.094-9.328,37.516,14.614.422,32.146,26.556,36.344,33.153a14.207,14.207,0,0,1-.5,1.5S821.771,698.9,805.04,698.419,799.312,677.634,817.711,657.08Z" transform="translate(-475.707 -404.928)"/>
      <path id="Path_135" data-name="Path 135" class="cls-17" d="M805.32,690.161c0,4.291.48,7.769,1.075,7.769s1.075-3.478,1.075-7.769-.6-2.272-1.193-2.272S805.32,685.87,805.32,690.161Z" transform="translate(-480.641 -422.475)"/>
      <path id="Path_136" data-name="Path 136" class="cls-17" d="M788.054,702.044c3.768,2.053,7.052,3.3,7.334,2.774s-2.529-2.609-6.323-4.662-2.281-.561-2.567-.038S784.29,699.992,788.054,702.044Z" transform="translate(-469.322 -429.237)"/>
      <path id="Path_137" data-name="Path 137" class="cls-16" d="M219.01,730s5.627,7.356-2.6,18.467-15,20.486-12.262,27.4c0,0,12.405-20.629,22.505-20.916S230.118,742.418,219.01,730Z" transform="translate(-132.522 -447.11)"/>
      <path id="Path_138" data-name="Path 138" class="cls-9" d="M219.489,730a9.113,9.113,0,0,1,1.159,2.318c9.851,11.575,15.1,22.379,5.632,22.649-8.823.253-19.39,16.018-21.919,20.01a8.537,8.537,0,0,0,.3.906s12.405-20.629,22.505-20.916S230.6,742.418,219.489,730Z" transform="translate(-133 -447.11)"/>
      <path id="Path_139" data-name="Path 139" class="cls-17" d="M263.278,750c0,2.588-.291,4.687-.649,4.687s-.649-2.108-.649-4.687.362-1.37.721-1.37S263.278,747.409,263.278,750Z" transform="translate(-166.332 -457.72)"/>
      <path id="Path_140" data-name="Path 140" class="cls-17" d="M267.48,757.178c-2.272,1.239-4.257,1.99-4.426,1.686s1.534-1.577,3.794-2.816,1.378-.337,1.547-.021S269.769,755.939,267.48,757.178Z" transform="translate(-166.947 -461.812)"/>
      <path id="Path_141" data-name="Path 141" class="cls-16" d="M152.422,730s-5.627,7.356,2.6,18.467,15,20.486,12.262,27.4c0,0-12.405-20.629-22.505-20.916S141.315,742.418,152.422,730Z" transform="translate(-95.651 -447.11)"/>
      <path id="Path_142" data-name="Path 142" class="cls-9" d="M152.393,730a9.114,9.114,0,0,0-1.159,2.318c-9.851,11.575-15.1,22.379-5.632,22.649,8.823.253,19.39,16.018,21.919,20.01a8.544,8.544,0,0,1-.3.906s-12.406-20.629-22.505-20.916S141.285,742.418,152.393,730Z" transform="translate(-95.622 -447.11)"/>
      <path id="Path_143" data-name="Path 143" class="cls-17" d="M144.94,750c0,2.588.291,4.687.649,4.687s.649-2.108.649-4.687-.363-1.37-.721-1.37S144.94,747.409,144.94,750Z" transform="translate(-98.627 -457.72)"/>
      <path id="Path_144" data-name="Path 144" class="cls-17" d="M134.526,757.178c2.272,1.239,4.257,1.99,4.426,1.686s-1.534-1.577-3.794-2.816-1.378-.337-1.547-.021S132.241,755.939,134.526,757.178Z" transform="translate(-91.804 -461.812)"/>
    </g>
  </g>
</svg>
