<svg xmlns="http://www.w3.org/2000/svg" viewBox="0 0 26 26">
  <defs>
    <style>
      .cls-1 {
        fill: #55a0fb;
      }

      .cls-2 {
        fill: #f8f8f8;
      }
    </style>
  </defs>
  <g id="twitter" transform="translate(-285 -165)">
    <circle id="Ellipse_4" data-name="Ellipse 4" class="cls-1" cx="13" cy="13" r="13" transform="translate(285 165)"/>
    <g id="bxl-twitter" transform="translate(291 172)">
      <path id="Path_3" data-name="Path 3" class="cls-2" d="M15.267,7.012c.01.132.01.263.01.393a8.564,8.564,0,0,1-8.622,8.623A8.563,8.563,0,0,1,2,14.668a6.333,6.333,0,0,0,.732.038,6.072,6.072,0,0,0,3.763-1.3,3.037,3.037,0,0,1-2.834-2.1,3.859,3.859,0,0,0,.573.047,3.225,3.225,0,0,0,.8-.1A3.03,3.03,0,0,1,2.6,8.278V8.241a3.058,3.058,0,0,0,1.369.384A3.035,3.035,0,0,1,3.03,4.573,8.62,8.62,0,0,0,9.281,7.744a3.444,3.444,0,0,1-.075-.694,3.033,3.033,0,0,1,5.245-2.074,5.987,5.987,0,0,0,1.923-.732,3.025,3.025,0,0,1-1.332,1.67,6.074,6.074,0,0,0,1.745-.469,6.5,6.5,0,0,1-1.52,1.567Z" transform="translate(-2 -4.019)"/>
    </g>
  </g>
</svg>
